<svg width="40" height="40" viewBox="0 0 40 40" fill="none" xmlns="http://www.w3.org/2000/svg">
<path d="M34.1025 5.8126C32.2667 3.96333 30.0817 2.49721 27.6745 1.4994C25.2673 0.501587 22.6858 -0.00804642 20.08 9.60501e-05C9.15754 9.60501e-05 0.267539 8.8901 0.267539 19.8201C0.267539 23.3126 1.18254 26.7276 2.91504 29.7276L0.102539 40.0001L10.61 37.2426C13.5149 38.8249 16.7696 39.6552 20.0775 39.6576H20.085C31.0075 39.6576 39.905 30.7676 39.905 19.8376C39.9117 17.2327 39.4021 14.6523 38.4057 12.2455C37.4093 9.83863 35.9459 7.65309 34.1 5.8151L34.1025 5.8126ZM20.085 36.3126C17.1329 36.3131 14.235 35.5196 11.695 34.0151L11.0925 33.6551L4.85754 35.2876L6.52254 29.2101L6.13254 28.5851C4.47693 25.962 3.60202 22.9219 3.61004 19.8201C3.61534 15.4503 5.35408 11.2611 8.44469 8.17194C11.5353 5.08274 15.7253 3.3459 20.095 3.3426C24.4925 3.3426 28.635 5.0626 31.7425 8.1701C33.2761 9.69806 34.4916 11.5148 35.3189 13.5152C36.1462 15.5157 36.5689 17.6603 36.5625 19.8251C36.555 28.9176 29.165 36.3101 20.085 36.3101V36.3126ZM29.1175 23.9701C28.625 23.7201 26.1875 22.5251 25.735 22.3601C25.2825 22.1951 24.9525 22.1101 24.6175 22.6101C24.29 23.1026 23.3375 24.2201 23.0475 24.5551C22.7575 24.8826 22.47 24.9301 21.9775 24.6801C21.485 24.4301 19.8825 23.9076 17.9925 22.2201C16.5225 20.9076 15.525 19.2826 15.235 18.7901C14.945 18.2976 15.2025 18.0251 15.455 17.7826C15.6825 17.5626 15.9475 17.2051 16.1975 16.9151C16.4475 16.6251 16.525 16.4226 16.69 16.0876C16.855 15.7601 16.775 15.4701 16.65 15.2201C16.525 14.9701 15.5325 12.5326 15.1275 11.5401C14.73 10.5701 14.315 10.7051 14.01 10.6876C13.72 10.6726 13.3925 10.6726 13.065 10.6726C12.7375 10.6726 12.1975 10.7976 11.745 11.2901C11.2925 11.7826 10.01 12.9851 10.01 15.4226C10.01 17.8601 11.7825 20.2126 12.0325 20.5476C12.2825 20.8751 15.525 25.8826 20.4925 28.0251C21.6725 28.5326 22.595 28.8376 23.3125 29.0726C24.5 29.4476 25.5775 29.3926 26.43 29.2676C27.3825 29.1276 29.36 28.0726 29.775 26.9151C30.19 25.7576 30.19 24.7676 30.065 24.5626C29.9475 24.3426 29.62 24.2201 29.12 23.9676L29.1175 23.9701Z" fill="black"/>
</svg>
